<svg width="266" height="142" viewBox="0 0 266 142" fill="none" xmlns="http://www.w3.org/2000/svg">
<path d="M259.015 142H225.256C221.414 142 218.271 138.857 218.271 135.016V63.4345C218.271 59.5936 221.414 56.4509 225.256 56.4509H259.015C262.857 56.4509 266 59.5936 266 63.4345V135.016C266 138.857 262.857 142 259.015 142Z" fill="#11161C"/>
<path d="M259.423 132.689H224.907C223.51 132.689 222.346 131.525 222.346 130.128V64.8312C222.346 63.4344 223.51 62.2705 224.907 62.2705H259.423C260.82 62.2705 261.984 63.4344 261.984 64.8312V130.186C261.926 131.525 260.82 132.689 259.423 132.689Z" fill="white"/>
<path d="M242.136 140.196C243.711 140.196 244.988 138.919 244.988 137.344C244.988 135.769 243.711 134.493 242.136 134.493C240.561 134.493 239.284 135.769 239.284 137.344C239.284 138.919 240.561 140.196 242.136 140.196Z" fill="#303E4E"/>
<path d="M245.337 60.5248H236.606C236.315 60.5248 236.024 60.292 236.024 59.9428C236.024 59.5936 236.315 59.3608 236.606 59.3608H245.337C245.686 59.3608 245.919 59.5936 245.919 59.9428C245.919 60.292 245.686 60.5248 245.337 60.5248Z" fill="#303E4E"/>
<path d="M247.665 60.5248C247.374 60.5248 247.083 60.292 247.083 59.9428C247.083 59.5936 247.374 59.3608 247.665 59.3608C248.014 59.3608 248.247 59.5936 248.247 59.9428C248.247 60.292 248.014 60.5248 247.665 60.5248Z" fill="#303E4E"/>
<path d="M192.719 127.451H18.8587C14.6679 127.451 11.1755 124.017 11.1755 119.769V7.68197C11.1755 3.43361 14.6679 0 18.8587 0H192.719C196.91 0 200.402 3.43361 200.402 7.68197V119.827C200.344 124.017 196.91 127.451 192.719 127.451Z" fill="#11161C"/>
<path d="M206.223 142H5.35492C2.38643 142 0 139.614 0 136.646C0 131.583 4.1326 127.451 9.1965 127.451H202.323C207.387 127.451 211.519 131.583 211.519 136.646C211.578 139.614 209.191 142 206.223 142Z" fill="#11161C"/>
<path d="M191.438 120.467H20.1391C19.0914 120.467 18.2183 119.594 18.2183 118.547V8.90413C18.2183 7.85659 19.0914 6.98364 20.1391 6.98364H191.497C192.544 6.98364 193.417 7.85659 193.417 8.90413V118.547C193.359 119.594 192.544 120.467 191.438 120.467Z" fill="white"/>
<path d="M82.9431 20.3689H28.8118V41.9599H82.9431V20.3689Z" fill="#74AFC1"/>
<path d="M82.9431 51.9697H28.8118V57.1492H82.9431V51.9697Z" fill="#11161C"/>
<path d="M82.9431 60.0007H28.8118V65.1802H82.9431V60.0007Z" fill="#11161C"/>
<path d="M82.9431 68.4392H28.8118V73.6187H82.9431V68.4392Z" fill="#11161C"/>
<path d="M58.0893 77.1106H28.8118V82.0573H58.0893V77.1106Z" fill="#11161C"/>
<path d="M146.737 63.318C158.92 63.318 168.796 53.4429 168.796 41.2614C168.796 29.0799 158.92 19.2048 146.737 19.2048C134.553 19.2048 124.677 29.0799 124.677 41.2614C124.677 53.4429 134.553 63.318 146.737 63.318Z" fill="#F0E5C8"/>
<path d="M117.925 84.967C117.925 72.8038 130.788 62.9104 146.678 62.9104C162.569 62.9104 175.432 72.8038 175.432 84.967" fill="#F0E5C8"/>
<path d="M98.3676 111.156H71.0109C67.344 111.156 64.3173 108.13 64.3173 104.463C64.3173 100.797 67.344 97.7705 71.0109 97.7705H98.3676C102.035 97.7705 105.061 100.797 105.061 104.463C105.061 108.13 102.035 111.156 98.3676 111.156Z" fill="#A77F91"/>
<path d="M249.586 124.192H235.151C233.987 124.192 232.997 123.202 232.997 122.039C232.997 120.875 233.987 119.885 235.151 119.885H249.586C250.75 119.885 251.74 120.875 251.74 122.039C251.74 123.261 250.75 124.192 249.586 124.192Z" fill="#A77F91"/>
<path d="M142.604 111.156H115.247C111.58 111.156 108.554 108.13 108.554 104.463C108.554 100.797 111.58 97.7705 115.247 97.7705H142.604C146.271 97.7705 149.298 100.797 149.298 104.463C149.298 108.13 146.271 111.156 142.604 111.156Z" stroke="#A77F91" stroke-miterlimit="10"/>
<path d="M249.47 130.361H235.035C233.87 130.361 232.881 129.371 232.881 128.207C232.881 127.043 233.87 126.054 235.035 126.054H249.47C250.634 126.054 251.623 127.043 251.623 128.207C251.623 129.371 250.634 130.361 249.47 130.361Z" stroke="#A77F91" stroke-miterlimit="10"/>
<path d="M257.327 65.7625H225.78V75.6559H257.327V65.7625Z" fill="#74AFC1"/>
<path d="M257.327 78.5076H225.78V81.5338H257.327V78.5076Z" fill="#11161C"/>
<path d="M257.327 82.2319H225.78V85.2582H257.327V82.2319Z" fill="#11161C"/>
<path d="M242.892 86.1311H225.78V89.0409H242.892V86.1311Z" fill="#11161C"/>
<path d="M242.31 108.712C246.939 108.712 250.692 104.96 250.692 100.331C250.692 95.7029 246.939 91.9509 242.31 91.9509C237.681 91.9509 233.929 95.7029 233.929 100.331C233.929 104.96 237.681 108.712 242.31 108.712Z" fill="#F0E5C8"/>
<path d="M231.368 116.976C231.368 112.32 236.257 108.595 242.31 108.595C248.364 108.595 253.253 112.378 253.253 116.976" fill="#F0E5C8"/>
</svg>
