<svg width="165" height="142" viewBox="0 0 165 142" fill="none" xmlns="http://www.w3.org/2000/svg">
<g clip-path="url(#clip0)">
<path d="M159.87 0H65.4015C62.5803 0 60.272 2.29994 60.272 5.11098V70.2759C60.272 73.087 62.5803 75.3869 65.4015 75.3869H115.543L133.795 88.1644L131.829 75.3869H159.87C162.692 75.3869 165 73.087 165 70.2759V5.11098C165 2.29994 162.692 0 159.87 0Z" fill="#F0E5C8"/>
<path d="M150.039 18.7402H133.795V54.943H150.039V18.7402Z" fill="white"/>
<path d="M131.23 31.0918H114.987V54.943H131.23V31.0918Z" fill="white"/>
<path d="M112.422 37.9065H96.1787V54.9431H112.422V37.9065Z" fill="white"/>
<path d="M54.0738 11.9255C24.1943 11.9255 0 36.0323 0 65.8038C0 77.3461 3.63342 88.0791 9.87435 96.8104L3.41969 117.978L25.7759 111.717C34.0259 116.743 43.6865 119.682 54.0738 119.682C83.9534 119.682 108.148 95.5752 108.148 65.8038C108.148 36.0323 83.9534 11.9255 54.0738 11.9255Z" fill="#A77F91"/>
<path d="M84.7655 52.8135H23.6385V57.4985H84.7655V52.8135Z" fill="white"/>
<path d="M84.7655 64.313H23.6385V68.9981H84.7655V64.313Z" fill="white"/>
<path d="M84.7655 76.2388H23.6385V80.9238H84.7655V76.2388Z" fill="white"/>
<path d="M159.956 139.615L159.7 139.87C156.836 142.724 152.176 142.724 149.312 139.87L118.834 109.46L129.435 98.8975L159.956 129.308C162.82 132.119 162.82 136.761 159.956 139.615Z" fill="#74AFC1"/>
<path d="M127.341 101.325L119.39 93.4031C124.263 87.3126 127.212 79.5609 127.212 71.1704C127.212 51.408 111.14 35.3936 91.3057 35.3936C71.4715 35.3936 55.3989 51.408 55.3989 71.1704C55.3989 90.9328 71.4715 106.947 91.3057 106.947C99.6839 106.947 107.378 104.094 113.448 99.3234L121.399 107.245L127.341 101.325ZM91.3057 99.0678C75.8316 99.0678 63.307 86.5885 63.307 71.1704C63.307 55.7523 75.8316 43.273 91.3057 43.273C106.78 43.273 119.304 55.7523 119.304 71.1704C119.304 86.5885 106.78 99.0678 91.3057 99.0678Z" fill="#11161C"/>
<path opacity="0.2" d="M91.3057 99.0678C106.769 99.0678 119.304 86.5777 119.304 71.1704C119.304 55.7631 106.769 43.2729 91.3057 43.2729C75.8425 43.2729 63.307 55.7631 63.307 71.1704C63.307 86.5777 75.8425 99.0678 91.3057 99.0678Z" fill="#74AFC1"/>
</g>
<defs>
<clipPath id="clip0">
<rect width="165" height="142" fill="white"/>
</clipPath>
</defs>
</svg>
